%TF.GenerationSoftware,KiCad,Pcbnew,(5.1.6)-1*%
%TF.CreationDate,2020-09-01T10:18:49+02:00*%
%TF.ProjectId,C-60,432d3630-2e6b-4696-9361-645f70636258,rev?*%
%TF.SameCoordinates,Original*%
%TF.FileFunction,Paste,Top*%
%TF.FilePolarity,Positive*%
%FSLAX46Y46*%
G04 Gerber Fmt 4.6, Leading zero omitted, Abs format (unit mm)*
G04 Created by KiCad (PCBNEW (5.1.6)-1) date 2020-09-01 10:18:49*
%MOMM*%
%LPD*%
G01*
G04 APERTURE LIST*
%ADD10R,1.500000X1.000000*%
%ADD11R,1.200000X0.900000*%
%ADD12R,0.650000X1.060000*%
%ADD13C,0.100000*%
%ADD14R,1.800000X1.100000*%
%ADD15R,0.900000X0.800000*%
%ADD16R,0.900000X1.200000*%
G04 APERTURE END LIST*
%TO.C,R1*%
G36*
G01*
X-140038670Y-45400381D02*
X-140038670Y-44500379D01*
G75*
G02*
X-139788671Y-44250380I249999J0D01*
G01*
X-139138669Y-44250380D01*
G75*
G02*
X-138888670Y-44500379I0J-249999D01*
G01*
X-138888670Y-45400381D01*
G75*
G02*
X-139138669Y-45650380I-249999J0D01*
G01*
X-139788671Y-45650380D01*
G75*
G02*
X-140038670Y-45400381I0J249999D01*
G01*
G37*
G36*
G01*
X-142088670Y-45400381D02*
X-142088670Y-44500379D01*
G75*
G02*
X-141838671Y-44250380I249999J0D01*
G01*
X-141188669Y-44250380D01*
G75*
G02*
X-140938670Y-44500379I0J-249999D01*
G01*
X-140938670Y-45400381D01*
G75*
G02*
X-141188669Y-45650380I-249999J0D01*
G01*
X-141838671Y-45650380D01*
G75*
G02*
X-142088670Y-45400381I0J249999D01*
G01*
G37*
%TD*%
D10*
%TO.C,D35*%
X-175619750Y-42862500D03*
X-175619750Y-46062500D03*
X-170719750Y-42862500D03*
X-170719750Y-46062500D03*
%TD*%
%TO.C,D19*%
X-219688750Y-42862500D03*
X-219688750Y-46062500D03*
X-214788750Y-42862500D03*
X-214788750Y-46062500D03*
%TD*%
%TO.C,D18*%
X-269345750Y-42608500D03*
X-269345750Y-45808500D03*
X-264445750Y-42608500D03*
X-264445750Y-45808500D03*
%TD*%
%TO.C,D17*%
X-318113750Y-43116500D03*
X-318113750Y-46316500D03*
X-313213750Y-43116500D03*
X-313213750Y-46316500D03*
%TD*%
%TO.C,D16*%
X-366627750Y-42608500D03*
X-366627750Y-45808500D03*
X-361727750Y-42608500D03*
X-361727750Y-45808500D03*
%TD*%
%TO.C,D15*%
X-414252750Y-42583500D03*
X-414252750Y-45783500D03*
X-409352750Y-42583500D03*
X-409352750Y-45783500D03*
%TD*%
%TO.C,D14*%
X-426444750Y-1460500D03*
X-426444750Y-4660500D03*
X-421544750Y-1460500D03*
X-421544750Y-4660500D03*
%TD*%
%TO.C,D13*%
X-423486750Y29476500D03*
X-423486750Y26276500D03*
X-418586750Y29476500D03*
X-418586750Y26276500D03*
%TD*%
%TO.C,D12*%
X-379835750Y29400500D03*
X-379835750Y26200500D03*
X-374935750Y29400500D03*
X-374935750Y26200500D03*
%TD*%
%TO.C,D11*%
X-332083750Y29527500D03*
X-332083750Y26327500D03*
X-327183750Y29527500D03*
X-327183750Y26327500D03*
%TD*%
%TO.C,D10*%
X-284331750Y29146500D03*
X-284331750Y25946500D03*
X-279431750Y29146500D03*
X-279431750Y25946500D03*
%TD*%
%TO.C,D9*%
X-237214750Y29781500D03*
X-237214750Y26581500D03*
X-232314750Y29781500D03*
X-232314750Y26581500D03*
%TD*%
%TO.C,D8*%
X-189335750Y29781500D03*
X-189335750Y26581500D03*
X-184435750Y29781500D03*
X-184435750Y26581500D03*
%TD*%
%TO.C,D7*%
X-131005750Y29349500D03*
X-131005750Y26149500D03*
X-126105750Y29349500D03*
X-126105750Y26149500D03*
%TD*%
%TO.C,D6*%
X-76178750Y29273500D03*
X-76178750Y26073500D03*
X-71278750Y29273500D03*
X-71278750Y26073500D03*
%TD*%
%TO.C,D5*%
X-76014750Y-4686500D03*
X-76014750Y-7886500D03*
X-71114750Y-4686500D03*
X-71114750Y-7886500D03*
%TD*%
%TO.C,D4*%
X-75924750Y-43472500D03*
X-75924750Y-46672500D03*
X-71024750Y-43472500D03*
X-71024750Y-46672500D03*
%TD*%
%TO.C,D3*%
X-127322750Y-44056500D03*
X-127322750Y-47256500D03*
X-122422750Y-44056500D03*
X-122422750Y-47256500D03*
%TD*%
%TO.C,C18*%
G36*
G01*
X-164438751Y-44954501D02*
X-163538749Y-44954501D01*
G75*
G02*
X-163288750Y-45204500I0J-249999D01*
G01*
X-163288750Y-45854502D01*
G75*
G02*
X-163538749Y-46104501I-249999J0D01*
G01*
X-164438751Y-46104501D01*
G75*
G02*
X-164688750Y-45854502I0J249999D01*
G01*
X-164688750Y-45204500D01*
G75*
G02*
X-164438751Y-44954501I249999J0D01*
G01*
G37*
G36*
G01*
X-164438751Y-42904501D02*
X-163538749Y-42904501D01*
G75*
G02*
X-163288750Y-43154500I0J-249999D01*
G01*
X-163288750Y-43804502D01*
G75*
G02*
X-163538749Y-44054501I-249999J0D01*
G01*
X-164438751Y-44054501D01*
G75*
G02*
X-164688750Y-43804502I0J249999D01*
G01*
X-164688750Y-43154500D01*
G75*
G02*
X-164438751Y-42904501I249999J0D01*
G01*
G37*
%TD*%
%TO.C,C17*%
G36*
G01*
X-208380751Y-45462501D02*
X-207480749Y-45462501D01*
G75*
G02*
X-207230750Y-45712500I0J-249999D01*
G01*
X-207230750Y-46362502D01*
G75*
G02*
X-207480749Y-46612501I-249999J0D01*
G01*
X-208380751Y-46612501D01*
G75*
G02*
X-208630750Y-46362502I0J249999D01*
G01*
X-208630750Y-45712500D01*
G75*
G02*
X-208380751Y-45462501I249999J0D01*
G01*
G37*
G36*
G01*
X-208380751Y-43412501D02*
X-207480749Y-43412501D01*
G75*
G02*
X-207230750Y-43662500I0J-249999D01*
G01*
X-207230750Y-44312502D01*
G75*
G02*
X-207480749Y-44562501I-249999J0D01*
G01*
X-208380751Y-44562501D01*
G75*
G02*
X-208630750Y-44312502I0J249999D01*
G01*
X-208630750Y-43662500D01*
G75*
G02*
X-208380751Y-43412501I249999J0D01*
G01*
G37*
%TD*%
%TO.C,C16*%
G36*
G01*
X-258926751Y-44827500D02*
X-258026749Y-44827500D01*
G75*
G02*
X-257776750Y-45077499I0J-249999D01*
G01*
X-257776750Y-45727501D01*
G75*
G02*
X-258026749Y-45977500I-249999J0D01*
G01*
X-258926751Y-45977500D01*
G75*
G02*
X-259176750Y-45727501I0J249999D01*
G01*
X-259176750Y-45077499D01*
G75*
G02*
X-258926751Y-44827500I249999J0D01*
G01*
G37*
G36*
G01*
X-258926751Y-42777500D02*
X-258026749Y-42777500D01*
G75*
G02*
X-257776750Y-43027499I0J-249999D01*
G01*
X-257776750Y-43677501D01*
G75*
G02*
X-258026749Y-43927500I-249999J0D01*
G01*
X-258926751Y-43927500D01*
G75*
G02*
X-259176750Y-43677501I0J249999D01*
G01*
X-259176750Y-43027499D01*
G75*
G02*
X-258926751Y-42777500I249999J0D01*
G01*
G37*
%TD*%
%TO.C,C15*%
G36*
G01*
X-307948751Y-45208500D02*
X-307048749Y-45208500D01*
G75*
G02*
X-306798750Y-45458499I0J-249999D01*
G01*
X-306798750Y-46108501D01*
G75*
G02*
X-307048749Y-46358500I-249999J0D01*
G01*
X-307948751Y-46358500D01*
G75*
G02*
X-308198750Y-46108501I0J249999D01*
G01*
X-308198750Y-45458499D01*
G75*
G02*
X-307948751Y-45208500I249999J0D01*
G01*
G37*
G36*
G01*
X-307948751Y-43158500D02*
X-307048749Y-43158500D01*
G75*
G02*
X-306798750Y-43408499I0J-249999D01*
G01*
X-306798750Y-44058501D01*
G75*
G02*
X-307048749Y-44308500I-249999J0D01*
G01*
X-307948751Y-44308500D01*
G75*
G02*
X-308198750Y-44058501I0J249999D01*
G01*
X-308198750Y-43408499D01*
G75*
G02*
X-307948751Y-43158500I249999J0D01*
G01*
G37*
%TD*%
%TO.C,C14*%
G36*
G01*
X-356589751Y-44963500D02*
X-355689749Y-44963500D01*
G75*
G02*
X-355439750Y-45213499I0J-249999D01*
G01*
X-355439750Y-45863501D01*
G75*
G02*
X-355689749Y-46113500I-249999J0D01*
G01*
X-356589751Y-46113500D01*
G75*
G02*
X-356839750Y-45863501I0J249999D01*
G01*
X-356839750Y-45213499D01*
G75*
G02*
X-356589751Y-44963500I249999J0D01*
G01*
G37*
G36*
G01*
X-356589751Y-42913500D02*
X-355689749Y-42913500D01*
G75*
G02*
X-355439750Y-43163499I0J-249999D01*
G01*
X-355439750Y-43813501D01*
G75*
G02*
X-355689749Y-44063500I-249999J0D01*
G01*
X-356589751Y-44063500D01*
G75*
G02*
X-356839750Y-43813501I0J249999D01*
G01*
X-356839750Y-43163499D01*
G75*
G02*
X-356589751Y-42913500I249999J0D01*
G01*
G37*
%TD*%
%TO.C,C13*%
G36*
G01*
X-404722751Y-44573500D02*
X-403822749Y-44573500D01*
G75*
G02*
X-403572750Y-44823499I0J-249999D01*
G01*
X-403572750Y-45473501D01*
G75*
G02*
X-403822749Y-45723500I-249999J0D01*
G01*
X-404722751Y-45723500D01*
G75*
G02*
X-404972750Y-45473501I0J249999D01*
G01*
X-404972750Y-44823499D01*
G75*
G02*
X-404722751Y-44573500I249999J0D01*
G01*
G37*
G36*
G01*
X-404722751Y-42523500D02*
X-403822749Y-42523500D01*
G75*
G02*
X-403572750Y-42773499I0J-249999D01*
G01*
X-403572750Y-43423501D01*
G75*
G02*
X-403822749Y-43673500I-249999J0D01*
G01*
X-404722751Y-43673500D01*
G75*
G02*
X-404972750Y-43423501I0J249999D01*
G01*
X-404972750Y-42773499D01*
G75*
G02*
X-404722751Y-42523500I249999J0D01*
G01*
G37*
%TD*%
%TO.C,C12*%
G36*
G01*
X-430111749Y1665499D02*
X-431011751Y1665499D01*
G75*
G02*
X-431261750Y1915498I0J249999D01*
G01*
X-431261750Y2565500D01*
G75*
G02*
X-431011751Y2815499I249999J0D01*
G01*
X-430111749Y2815499D01*
G75*
G02*
X-429861750Y2565500I0J-249999D01*
G01*
X-429861750Y1915498D01*
G75*
G02*
X-430111749Y1665499I-249999J0D01*
G01*
G37*
G36*
G01*
X-430111749Y-384501D02*
X-431011751Y-384501D01*
G75*
G02*
X-431261750Y-134502I0J249999D01*
G01*
X-431261750Y515500D01*
G75*
G02*
X-431011751Y765499I249999J0D01*
G01*
X-430111749Y765499D01*
G75*
G02*
X-429861750Y515500I0J-249999D01*
G01*
X-429861750Y-134502D01*
G75*
G02*
X-430111749Y-384501I-249999J0D01*
G01*
G37*
%TD*%
%TO.C,C11*%
G36*
G01*
X-419835751Y22101500D02*
X-418935749Y22101500D01*
G75*
G02*
X-418685750Y21851501I0J-249999D01*
G01*
X-418685750Y21201499D01*
G75*
G02*
X-418935749Y20951500I-249999J0D01*
G01*
X-419835751Y20951500D01*
G75*
G02*
X-420085750Y21201499I0J249999D01*
G01*
X-420085750Y21851501D01*
G75*
G02*
X-419835751Y22101500I249999J0D01*
G01*
G37*
G36*
G01*
X-419835751Y24151500D02*
X-418935749Y24151500D01*
G75*
G02*
X-418685750Y23901501I0J-249999D01*
G01*
X-418685750Y23251499D01*
G75*
G02*
X-418935749Y23001500I-249999J0D01*
G01*
X-419835751Y23001500D01*
G75*
G02*
X-420085750Y23251499I0J249999D01*
G01*
X-420085750Y23901501D01*
G75*
G02*
X-419835751Y24151500I249999J0D01*
G01*
G37*
%TD*%
%TO.C,C10*%
G36*
G01*
X-388085751Y27308500D02*
X-387185749Y27308500D01*
G75*
G02*
X-386935750Y27058501I0J-249999D01*
G01*
X-386935750Y26408499D01*
G75*
G02*
X-387185749Y26158500I-249999J0D01*
G01*
X-388085751Y26158500D01*
G75*
G02*
X-388335750Y26408499I0J249999D01*
G01*
X-388335750Y27058501D01*
G75*
G02*
X-388085751Y27308500I249999J0D01*
G01*
G37*
G36*
G01*
X-388085751Y29358500D02*
X-387185749Y29358500D01*
G75*
G02*
X-386935750Y29108501I0J-249999D01*
G01*
X-386935750Y28458499D01*
G75*
G02*
X-387185749Y28208500I-249999J0D01*
G01*
X-388085751Y28208500D01*
G75*
G02*
X-388335750Y28458499I0J249999D01*
G01*
X-388335750Y29108501D01*
G75*
G02*
X-388085751Y29358500I249999J0D01*
G01*
G37*
%TD*%
%TO.C,C9*%
G36*
G01*
X-341095751Y27181500D02*
X-340195749Y27181500D01*
G75*
G02*
X-339945750Y26931501I0J-249999D01*
G01*
X-339945750Y26281499D01*
G75*
G02*
X-340195749Y26031500I-249999J0D01*
G01*
X-341095751Y26031500D01*
G75*
G02*
X-341345750Y26281499I0J249999D01*
G01*
X-341345750Y26931501D01*
G75*
G02*
X-341095751Y27181500I249999J0D01*
G01*
G37*
G36*
G01*
X-341095751Y29231500D02*
X-340195749Y29231500D01*
G75*
G02*
X-339945750Y28981501I0J-249999D01*
G01*
X-339945750Y28331499D01*
G75*
G02*
X-340195749Y28081500I-249999J0D01*
G01*
X-341095751Y28081500D01*
G75*
G02*
X-341345750Y28331499I0J249999D01*
G01*
X-341345750Y28981501D01*
G75*
G02*
X-341095751Y29231500I249999J0D01*
G01*
G37*
%TD*%
%TO.C,C8*%
G36*
G01*
X-292200751Y26927500D02*
X-291300749Y26927500D01*
G75*
G02*
X-291050750Y26677501I0J-249999D01*
G01*
X-291050750Y26027499D01*
G75*
G02*
X-291300749Y25777500I-249999J0D01*
G01*
X-292200751Y25777500D01*
G75*
G02*
X-292450750Y26027499I0J249999D01*
G01*
X-292450750Y26677501D01*
G75*
G02*
X-292200751Y26927500I249999J0D01*
G01*
G37*
G36*
G01*
X-292200751Y28977500D02*
X-291300749Y28977500D01*
G75*
G02*
X-291050750Y28727501I0J-249999D01*
G01*
X-291050750Y28077499D01*
G75*
G02*
X-291300749Y27827500I-249999J0D01*
G01*
X-292200751Y27827500D01*
G75*
G02*
X-292450750Y28077499I0J249999D01*
G01*
X-292450750Y28727501D01*
G75*
G02*
X-292200751Y28977500I249999J0D01*
G01*
G37*
%TD*%
%TO.C,C7*%
G36*
G01*
X-245337751Y27689500D02*
X-244437749Y27689500D01*
G75*
G02*
X-244187750Y27439501I0J-249999D01*
G01*
X-244187750Y26789499D01*
G75*
G02*
X-244437749Y26539500I-249999J0D01*
G01*
X-245337751Y26539500D01*
G75*
G02*
X-245587750Y26789499I0J249999D01*
G01*
X-245587750Y27439501D01*
G75*
G02*
X-245337751Y27689500I249999J0D01*
G01*
G37*
G36*
G01*
X-245337751Y29739500D02*
X-244437749Y29739500D01*
G75*
G02*
X-244187750Y29489501I0J-249999D01*
G01*
X-244187750Y28839499D01*
G75*
G02*
X-244437749Y28589500I-249999J0D01*
G01*
X-245337751Y28589500D01*
G75*
G02*
X-245587750Y28839499I0J249999D01*
G01*
X-245587750Y29489501D01*
G75*
G02*
X-245337751Y29739500I249999J0D01*
G01*
G37*
%TD*%
%TO.C,C6*%
G36*
G01*
X-197966751Y26791500D02*
X-197066749Y26791500D01*
G75*
G02*
X-196816750Y26541501I0J-249999D01*
G01*
X-196816750Y25891499D01*
G75*
G02*
X-197066749Y25641500I-249999J0D01*
G01*
X-197966751Y25641500D01*
G75*
G02*
X-198216750Y25891499I0J249999D01*
G01*
X-198216750Y26541501D01*
G75*
G02*
X-197966751Y26791500I249999J0D01*
G01*
G37*
G36*
G01*
X-197966751Y28841500D02*
X-197066749Y28841500D01*
G75*
G02*
X-196816750Y28591501I0J-249999D01*
G01*
X-196816750Y27941499D01*
G75*
G02*
X-197066749Y27691500I-249999J0D01*
G01*
X-197966751Y27691500D01*
G75*
G02*
X-198216750Y27941499I0J249999D01*
G01*
X-198216750Y28591501D01*
G75*
G02*
X-197966751Y28841500I249999J0D01*
G01*
G37*
%TD*%
%TO.C,C5*%
G36*
G01*
X-117956751Y27308499D02*
X-117056749Y27308499D01*
G75*
G02*
X-116806750Y27058500I0J-249999D01*
G01*
X-116806750Y26408498D01*
G75*
G02*
X-117056749Y26158499I-249999J0D01*
G01*
X-117956751Y26158499D01*
G75*
G02*
X-118206750Y26408498I0J249999D01*
G01*
X-118206750Y27058500D01*
G75*
G02*
X-117956751Y27308499I249999J0D01*
G01*
G37*
G36*
G01*
X-117956751Y29358499D02*
X-117056749Y29358499D01*
G75*
G02*
X-116806750Y29108500I0J-249999D01*
G01*
X-116806750Y28458498D01*
G75*
G02*
X-117056749Y28208499I-249999J0D01*
G01*
X-117956751Y28208499D01*
G75*
G02*
X-118206750Y28458498I0J249999D01*
G01*
X-118206750Y29108500D01*
G75*
G02*
X-117956751Y29358499I249999J0D01*
G01*
G37*
%TD*%
%TO.C,C4*%
G36*
G01*
X-73250750Y20822499D02*
X-73250750Y21722501D01*
G75*
G02*
X-73000751Y21972500I249999J0D01*
G01*
X-72350749Y21972500D01*
G75*
G02*
X-72100750Y21722501I0J-249999D01*
G01*
X-72100750Y20822499D01*
G75*
G02*
X-72350749Y20572500I-249999J0D01*
G01*
X-73000751Y20572500D01*
G75*
G02*
X-73250750Y20822499I0J249999D01*
G01*
G37*
G36*
G01*
X-75300750Y20822499D02*
X-75300750Y21722501D01*
G75*
G02*
X-75050751Y21972500I249999J0D01*
G01*
X-74400749Y21972500D01*
G75*
G02*
X-74150750Y21722501I0J-249999D01*
G01*
X-74150750Y20822499D01*
G75*
G02*
X-74400749Y20572500I-249999J0D01*
G01*
X-75050751Y20572500D01*
G75*
G02*
X-75300750Y20822499I0J249999D01*
G01*
G37*
%TD*%
%TO.C,C3*%
G36*
G01*
X-68043750Y-13594501D02*
X-68043750Y-12694499D01*
G75*
G02*
X-67793751Y-12444500I249999J0D01*
G01*
X-67143749Y-12444500D01*
G75*
G02*
X-66893750Y-12694499I0J-249999D01*
G01*
X-66893750Y-13594501D01*
G75*
G02*
X-67143749Y-13844500I-249999J0D01*
G01*
X-67793751Y-13844500D01*
G75*
G02*
X-68043750Y-13594501I0J249999D01*
G01*
G37*
G36*
G01*
X-70093750Y-13594501D02*
X-70093750Y-12694499D01*
G75*
G02*
X-69843751Y-12444500I249999J0D01*
G01*
X-69193749Y-12444500D01*
G75*
G02*
X-68943750Y-12694499I0J-249999D01*
G01*
X-68943750Y-13594501D01*
G75*
G02*
X-69193749Y-13844500I-249999J0D01*
G01*
X-69843751Y-13844500D01*
G75*
G02*
X-70093750Y-13594501I0J249999D01*
G01*
G37*
%TD*%
%TO.C,C2*%
G36*
G01*
X-72869750Y-39502501D02*
X-72869750Y-38602499D01*
G75*
G02*
X-72619751Y-38352500I249999J0D01*
G01*
X-71969749Y-38352500D01*
G75*
G02*
X-71719750Y-38602499I0J-249999D01*
G01*
X-71719750Y-39502501D01*
G75*
G02*
X-71969749Y-39752500I-249999J0D01*
G01*
X-72619751Y-39752500D01*
G75*
G02*
X-72869750Y-39502501I0J249999D01*
G01*
G37*
G36*
G01*
X-74919750Y-39502501D02*
X-74919750Y-38602499D01*
G75*
G02*
X-74669751Y-38352500I249999J0D01*
G01*
X-74019749Y-38352500D01*
G75*
G02*
X-73769750Y-38602499I0J-249999D01*
G01*
X-73769750Y-39502501D01*
G75*
G02*
X-74019749Y-39752500I-249999J0D01*
G01*
X-74669751Y-39752500D01*
G75*
G02*
X-74919750Y-39502501I0J249999D01*
G01*
G37*
%TD*%
%TO.C,C1*%
G36*
G01*
X-115924751Y-46224501D02*
X-115024749Y-46224501D01*
G75*
G02*
X-114774750Y-46474500I0J-249999D01*
G01*
X-114774750Y-47124502D01*
G75*
G02*
X-115024749Y-47374501I-249999J0D01*
G01*
X-115924751Y-47374501D01*
G75*
G02*
X-116174750Y-47124502I0J249999D01*
G01*
X-116174750Y-46474500D01*
G75*
G02*
X-115924751Y-46224501I249999J0D01*
G01*
G37*
G36*
G01*
X-115924751Y-44174501D02*
X-115024749Y-44174501D01*
G75*
G02*
X-114774750Y-44424500I0J-249999D01*
G01*
X-114774750Y-45074502D01*
G75*
G02*
X-115024749Y-45324501I-249999J0D01*
G01*
X-115924751Y-45324501D01*
G75*
G02*
X-116174750Y-45074502I0J249999D01*
G01*
X-116174750Y-44424500D01*
G75*
G02*
X-115924751Y-44174501I249999J0D01*
G01*
G37*
%TD*%
D11*
%TO.C,D2*%
X-416718750Y-15937500D03*
X-416718750Y-12637500D03*
%TD*%
%TO.C,U3*%
G36*
G01*
X-139888750Y19397500D02*
X-139888750Y19397500D01*
G75*
G02*
X-139563750Y19072500I0J-325000D01*
G01*
X-139563750Y18662500D01*
G75*
G02*
X-139888750Y18337500I-325000J0D01*
G01*
X-139888750Y18337500D01*
G75*
G02*
X-140213750Y18662500I0J325000D01*
G01*
X-140213750Y19072500D01*
G75*
G02*
X-139888750Y19397500I325000J0D01*
G01*
G37*
G36*
G01*
X-138938750Y19397500D02*
X-138938750Y19397500D01*
G75*
G02*
X-138613750Y19072500I0J-325000D01*
G01*
X-138613750Y18662500D01*
G75*
G02*
X-138938750Y18337500I-325000J0D01*
G01*
X-138938750Y18337500D01*
G75*
G02*
X-139263750Y18662500I0J325000D01*
G01*
X-139263750Y19072500D01*
G75*
G02*
X-138938750Y19397500I325000J0D01*
G01*
G37*
G36*
G01*
X-140838750Y19397500D02*
X-140838750Y19397500D01*
G75*
G02*
X-140513750Y19072500I0J-325000D01*
G01*
X-140513750Y18662500D01*
G75*
G02*
X-140838750Y18337500I-325000J0D01*
G01*
X-140838750Y18337500D01*
G75*
G02*
X-141163750Y18662500I0J325000D01*
G01*
X-141163750Y19072500D01*
G75*
G02*
X-140838750Y19397500I325000J0D01*
G01*
G37*
G36*
G01*
X-140838750Y21597500D02*
X-140838750Y21597500D01*
G75*
G02*
X-140513750Y21272500I0J-325000D01*
G01*
X-140513750Y20862500D01*
G75*
G02*
X-140838750Y20537500I-325000J0D01*
G01*
X-140838750Y20537500D01*
G75*
G02*
X-141163750Y20862500I0J325000D01*
G01*
X-141163750Y21272500D01*
G75*
G02*
X-140838750Y21597500I325000J0D01*
G01*
G37*
G36*
G01*
X-139888750Y21597500D02*
X-139888750Y21597500D01*
G75*
G02*
X-139563750Y21272500I0J-325000D01*
G01*
X-139563750Y20862500D01*
G75*
G02*
X-139888750Y20537500I-325000J0D01*
G01*
X-139888750Y20537500D01*
G75*
G02*
X-140213750Y20862500I0J325000D01*
G01*
X-140213750Y21272500D01*
G75*
G02*
X-139888750Y21597500I325000J0D01*
G01*
G37*
D12*
X-138938750Y21067500D03*
%TD*%
%TO.C,U1*%
G36*
G01*
X-148713517Y-13500203D02*
X-149544367Y-12669353D01*
G75*
G02*
X-149544367Y-12457221I106066J106066D01*
G01*
X-149544367Y-12457221D01*
G75*
G02*
X-149332235Y-12457221I106066J-106066D01*
G01*
X-148501385Y-13288071D01*
G75*
G02*
X-148501385Y-13500203I-106066J-106066D01*
G01*
X-148501385Y-13500203D01*
G75*
G02*
X-148713517Y-13500203I-106066J106066D01*
G01*
G37*
G36*
G01*
X-148359963Y-13146649D02*
X-149190813Y-12315799D01*
G75*
G02*
X-149190813Y-12103667I106066J106066D01*
G01*
X-149190813Y-12103667D01*
G75*
G02*
X-148978681Y-12103667I106066J-106066D01*
G01*
X-148147831Y-12934517D01*
G75*
G02*
X-148147831Y-13146649I-106066J-106066D01*
G01*
X-148147831Y-13146649D01*
G75*
G02*
X-148359963Y-13146649I-106066J106066D01*
G01*
G37*
G36*
G01*
X-148006410Y-12793096D02*
X-148837260Y-11962246D01*
G75*
G02*
X-148837260Y-11750114I106066J106066D01*
G01*
X-148837260Y-11750114D01*
G75*
G02*
X-148625128Y-11750114I106066J-106066D01*
G01*
X-147794278Y-12580964D01*
G75*
G02*
X-147794278Y-12793096I-106066J-106066D01*
G01*
X-147794278Y-12793096D01*
G75*
G02*
X-148006410Y-12793096I-106066J106066D01*
G01*
G37*
G36*
G01*
X-147652856Y-12439542D02*
X-148483706Y-11608692D01*
G75*
G02*
X-148483706Y-11396560I106066J106066D01*
G01*
X-148483706Y-11396560D01*
G75*
G02*
X-148271574Y-11396560I106066J-106066D01*
G01*
X-147440724Y-12227410D01*
G75*
G02*
X-147440724Y-12439542I-106066J-106066D01*
G01*
X-147440724Y-12439542D01*
G75*
G02*
X-147652856Y-12439542I-106066J106066D01*
G01*
G37*
G36*
G01*
X-147299303Y-12085989D02*
X-148130153Y-11255139D01*
G75*
G02*
X-148130153Y-11043007I106066J106066D01*
G01*
X-148130153Y-11043007D01*
G75*
G02*
X-147918021Y-11043007I106066J-106066D01*
G01*
X-147087171Y-11873857D01*
G75*
G02*
X-147087171Y-12085989I-106066J-106066D01*
G01*
X-147087171Y-12085989D01*
G75*
G02*
X-147299303Y-12085989I-106066J106066D01*
G01*
G37*
G36*
G01*
X-146945750Y-11732436D02*
X-147776600Y-10901586D01*
G75*
G02*
X-147776600Y-10689454I106066J106066D01*
G01*
X-147776600Y-10689454D01*
G75*
G02*
X-147564468Y-10689454I106066J-106066D01*
G01*
X-146733618Y-11520304D01*
G75*
G02*
X-146733618Y-11732436I-106066J-106066D01*
G01*
X-146733618Y-11732436D01*
G75*
G02*
X-146945750Y-11732436I-106066J106066D01*
G01*
G37*
G36*
G01*
X-146592196Y-11378882D02*
X-147423046Y-10548032D01*
G75*
G02*
X-147423046Y-10335900I106066J106066D01*
G01*
X-147423046Y-10335900D01*
G75*
G02*
X-147210914Y-10335900I106066J-106066D01*
G01*
X-146380064Y-11166750D01*
G75*
G02*
X-146380064Y-11378882I-106066J-106066D01*
G01*
X-146380064Y-11378882D01*
G75*
G02*
X-146592196Y-11378882I-106066J106066D01*
G01*
G37*
G36*
G01*
X-146238643Y-11025329D02*
X-147069493Y-10194479D01*
G75*
G02*
X-147069493Y-9982347I106066J106066D01*
G01*
X-147069493Y-9982347D01*
G75*
G02*
X-146857361Y-9982347I106066J-106066D01*
G01*
X-146026511Y-10813197D01*
G75*
G02*
X-146026511Y-11025329I-106066J-106066D01*
G01*
X-146026511Y-11025329D01*
G75*
G02*
X-146238643Y-11025329I-106066J106066D01*
G01*
G37*
G36*
G01*
X-145885090Y-10671776D02*
X-146715940Y-9840926D01*
G75*
G02*
X-146715940Y-9628794I106066J106066D01*
G01*
X-146715940Y-9628794D01*
G75*
G02*
X-146503808Y-9628794I106066J-106066D01*
G01*
X-145672958Y-10459644D01*
G75*
G02*
X-145672958Y-10671776I-106066J-106066D01*
G01*
X-145672958Y-10671776D01*
G75*
G02*
X-145885090Y-10671776I-106066J106066D01*
G01*
G37*
G36*
G01*
X-145531536Y-10318222D02*
X-146362386Y-9487372D01*
G75*
G02*
X-146362386Y-9275240I106066J106066D01*
G01*
X-146362386Y-9275240D01*
G75*
G02*
X-146150254Y-9275240I106066J-106066D01*
G01*
X-145319404Y-10106090D01*
G75*
G02*
X-145319404Y-10318222I-106066J-106066D01*
G01*
X-145319404Y-10318222D01*
G75*
G02*
X-145531536Y-10318222I-106066J106066D01*
G01*
G37*
G36*
G01*
X-145177983Y-9964669D02*
X-146008833Y-9133819D01*
G75*
G02*
X-146008833Y-8921687I106066J106066D01*
G01*
X-146008833Y-8921687D01*
G75*
G02*
X-145796701Y-8921687I106066J-106066D01*
G01*
X-144965851Y-9752537D01*
G75*
G02*
X-144965851Y-9964669I-106066J-106066D01*
G01*
X-144965851Y-9964669D01*
G75*
G02*
X-145177983Y-9964669I-106066J106066D01*
G01*
G37*
G36*
G01*
X-144824429Y-9611115D02*
X-145655279Y-8780265D01*
G75*
G02*
X-145655279Y-8568133I106066J106066D01*
G01*
X-145655279Y-8568133D01*
G75*
G02*
X-145443147Y-8568133I106066J-106066D01*
G01*
X-144612297Y-9398983D01*
G75*
G02*
X-144612297Y-9611115I-106066J-106066D01*
G01*
X-144612297Y-9611115D01*
G75*
G02*
X-144824429Y-9611115I-106066J106066D01*
G01*
G37*
G36*
G01*
X-143657703Y-9611115D02*
X-143657703Y-9611115D01*
G75*
G02*
X-143657703Y-9398983I106066J106066D01*
G01*
X-142826853Y-8568133D01*
G75*
G02*
X-142614721Y-8568133I106066J-106066D01*
G01*
X-142614721Y-8568133D01*
G75*
G02*
X-142614721Y-8780265I-106066J-106066D01*
G01*
X-143445571Y-9611115D01*
G75*
G02*
X-143657703Y-9611115I-106066J106066D01*
G01*
G37*
G36*
G01*
X-143304149Y-9964669D02*
X-143304149Y-9964669D01*
G75*
G02*
X-143304149Y-9752537I106066J106066D01*
G01*
X-142473299Y-8921687D01*
G75*
G02*
X-142261167Y-8921687I106066J-106066D01*
G01*
X-142261167Y-8921687D01*
G75*
G02*
X-142261167Y-9133819I-106066J-106066D01*
G01*
X-143092017Y-9964669D01*
G75*
G02*
X-143304149Y-9964669I-106066J106066D01*
G01*
G37*
G36*
G01*
X-142950596Y-10318222D02*
X-142950596Y-10318222D01*
G75*
G02*
X-142950596Y-10106090I106066J106066D01*
G01*
X-142119746Y-9275240D01*
G75*
G02*
X-141907614Y-9275240I106066J-106066D01*
G01*
X-141907614Y-9275240D01*
G75*
G02*
X-141907614Y-9487372I-106066J-106066D01*
G01*
X-142738464Y-10318222D01*
G75*
G02*
X-142950596Y-10318222I-106066J106066D01*
G01*
G37*
G36*
G01*
X-142597042Y-10671776D02*
X-142597042Y-10671776D01*
G75*
G02*
X-142597042Y-10459644I106066J106066D01*
G01*
X-141766192Y-9628794D01*
G75*
G02*
X-141554060Y-9628794I106066J-106066D01*
G01*
X-141554060Y-9628794D01*
G75*
G02*
X-141554060Y-9840926I-106066J-106066D01*
G01*
X-142384910Y-10671776D01*
G75*
G02*
X-142597042Y-10671776I-106066J106066D01*
G01*
G37*
G36*
G01*
X-142243489Y-11025329D02*
X-142243489Y-11025329D01*
G75*
G02*
X-142243489Y-10813197I106066J106066D01*
G01*
X-141412639Y-9982347D01*
G75*
G02*
X-141200507Y-9982347I106066J-106066D01*
G01*
X-141200507Y-9982347D01*
G75*
G02*
X-141200507Y-10194479I-106066J-106066D01*
G01*
X-142031357Y-11025329D01*
G75*
G02*
X-142243489Y-11025329I-106066J106066D01*
G01*
G37*
G36*
G01*
X-141889936Y-11378882D02*
X-141889936Y-11378882D01*
G75*
G02*
X-141889936Y-11166750I106066J106066D01*
G01*
X-141059086Y-10335900D01*
G75*
G02*
X-140846954Y-10335900I106066J-106066D01*
G01*
X-140846954Y-10335900D01*
G75*
G02*
X-140846954Y-10548032I-106066J-106066D01*
G01*
X-141677804Y-11378882D01*
G75*
G02*
X-141889936Y-11378882I-106066J106066D01*
G01*
G37*
G36*
G01*
X-141536382Y-11732436D02*
X-141536382Y-11732436D01*
G75*
G02*
X-141536382Y-11520304I106066J106066D01*
G01*
X-140705532Y-10689454D01*
G75*
G02*
X-140493400Y-10689454I106066J-106066D01*
G01*
X-140493400Y-10689454D01*
G75*
G02*
X-140493400Y-10901586I-106066J-106066D01*
G01*
X-141324250Y-11732436D01*
G75*
G02*
X-141536382Y-11732436I-106066J106066D01*
G01*
G37*
G36*
G01*
X-141182829Y-12085989D02*
X-141182829Y-12085989D01*
G75*
G02*
X-141182829Y-11873857I106066J106066D01*
G01*
X-140351979Y-11043007D01*
G75*
G02*
X-140139847Y-11043007I106066J-106066D01*
G01*
X-140139847Y-11043007D01*
G75*
G02*
X-140139847Y-11255139I-106066J-106066D01*
G01*
X-140970697Y-12085989D01*
G75*
G02*
X-141182829Y-12085989I-106066J106066D01*
G01*
G37*
G36*
G01*
X-140829276Y-12439542D02*
X-140829276Y-12439542D01*
G75*
G02*
X-140829276Y-12227410I106066J106066D01*
G01*
X-139998426Y-11396560D01*
G75*
G02*
X-139786294Y-11396560I106066J-106066D01*
G01*
X-139786294Y-11396560D01*
G75*
G02*
X-139786294Y-11608692I-106066J-106066D01*
G01*
X-140617144Y-12439542D01*
G75*
G02*
X-140829276Y-12439542I-106066J106066D01*
G01*
G37*
G36*
G01*
X-140475722Y-12793096D02*
X-140475722Y-12793096D01*
G75*
G02*
X-140475722Y-12580964I106066J106066D01*
G01*
X-139644872Y-11750114D01*
G75*
G02*
X-139432740Y-11750114I106066J-106066D01*
G01*
X-139432740Y-11750114D01*
G75*
G02*
X-139432740Y-11962246I-106066J-106066D01*
G01*
X-140263590Y-12793096D01*
G75*
G02*
X-140475722Y-12793096I-106066J106066D01*
G01*
G37*
G36*
G01*
X-140122169Y-13146649D02*
X-140122169Y-13146649D01*
G75*
G02*
X-140122169Y-12934517I106066J106066D01*
G01*
X-139291319Y-12103667D01*
G75*
G02*
X-139079187Y-12103667I106066J-106066D01*
G01*
X-139079187Y-12103667D01*
G75*
G02*
X-139079187Y-12315799I-106066J-106066D01*
G01*
X-139910037Y-13146649D01*
G75*
G02*
X-140122169Y-13146649I-106066J106066D01*
G01*
G37*
G36*
G01*
X-139768615Y-13500203D02*
X-139768615Y-13500203D01*
G75*
G02*
X-139768615Y-13288071I106066J106066D01*
G01*
X-138937765Y-12457221D01*
G75*
G02*
X-138725633Y-12457221I106066J-106066D01*
G01*
X-138725633Y-12457221D01*
G75*
G02*
X-138725633Y-12669353I-106066J-106066D01*
G01*
X-139556483Y-13500203D01*
G75*
G02*
X-139768615Y-13500203I-106066J106066D01*
G01*
G37*
G36*
G01*
X-138937765Y-15497779D02*
X-139768615Y-14666929D01*
G75*
G02*
X-139768615Y-14454797I106066J106066D01*
G01*
X-139768615Y-14454797D01*
G75*
G02*
X-139556483Y-14454797I106066J-106066D01*
G01*
X-138725633Y-15285647D01*
G75*
G02*
X-138725633Y-15497779I-106066J-106066D01*
G01*
X-138725633Y-15497779D01*
G75*
G02*
X-138937765Y-15497779I-106066J106066D01*
G01*
G37*
G36*
G01*
X-139291319Y-15851333D02*
X-140122169Y-15020483D01*
G75*
G02*
X-140122169Y-14808351I106066J106066D01*
G01*
X-140122169Y-14808351D01*
G75*
G02*
X-139910037Y-14808351I106066J-106066D01*
G01*
X-139079187Y-15639201D01*
G75*
G02*
X-139079187Y-15851333I-106066J-106066D01*
G01*
X-139079187Y-15851333D01*
G75*
G02*
X-139291319Y-15851333I-106066J106066D01*
G01*
G37*
G36*
G01*
X-139644872Y-16204886D02*
X-140475722Y-15374036D01*
G75*
G02*
X-140475722Y-15161904I106066J106066D01*
G01*
X-140475722Y-15161904D01*
G75*
G02*
X-140263590Y-15161904I106066J-106066D01*
G01*
X-139432740Y-15992754D01*
G75*
G02*
X-139432740Y-16204886I-106066J-106066D01*
G01*
X-139432740Y-16204886D01*
G75*
G02*
X-139644872Y-16204886I-106066J106066D01*
G01*
G37*
G36*
G01*
X-139998426Y-16558440D02*
X-140829276Y-15727590D01*
G75*
G02*
X-140829276Y-15515458I106066J106066D01*
G01*
X-140829276Y-15515458D01*
G75*
G02*
X-140617144Y-15515458I106066J-106066D01*
G01*
X-139786294Y-16346308D01*
G75*
G02*
X-139786294Y-16558440I-106066J-106066D01*
G01*
X-139786294Y-16558440D01*
G75*
G02*
X-139998426Y-16558440I-106066J106066D01*
G01*
G37*
G36*
G01*
X-140351979Y-16911993D02*
X-141182829Y-16081143D01*
G75*
G02*
X-141182829Y-15869011I106066J106066D01*
G01*
X-141182829Y-15869011D01*
G75*
G02*
X-140970697Y-15869011I106066J-106066D01*
G01*
X-140139847Y-16699861D01*
G75*
G02*
X-140139847Y-16911993I-106066J-106066D01*
G01*
X-140139847Y-16911993D01*
G75*
G02*
X-140351979Y-16911993I-106066J106066D01*
G01*
G37*
G36*
G01*
X-140705532Y-17265546D02*
X-141536382Y-16434696D01*
G75*
G02*
X-141536382Y-16222564I106066J106066D01*
G01*
X-141536382Y-16222564D01*
G75*
G02*
X-141324250Y-16222564I106066J-106066D01*
G01*
X-140493400Y-17053414D01*
G75*
G02*
X-140493400Y-17265546I-106066J-106066D01*
G01*
X-140493400Y-17265546D01*
G75*
G02*
X-140705532Y-17265546I-106066J106066D01*
G01*
G37*
G36*
G01*
X-141059086Y-17619100D02*
X-141889936Y-16788250D01*
G75*
G02*
X-141889936Y-16576118I106066J106066D01*
G01*
X-141889936Y-16576118D01*
G75*
G02*
X-141677804Y-16576118I106066J-106066D01*
G01*
X-140846954Y-17406968D01*
G75*
G02*
X-140846954Y-17619100I-106066J-106066D01*
G01*
X-140846954Y-17619100D01*
G75*
G02*
X-141059086Y-17619100I-106066J106066D01*
G01*
G37*
G36*
G01*
X-141412639Y-17972653D02*
X-142243489Y-17141803D01*
G75*
G02*
X-142243489Y-16929671I106066J106066D01*
G01*
X-142243489Y-16929671D01*
G75*
G02*
X-142031357Y-16929671I106066J-106066D01*
G01*
X-141200507Y-17760521D01*
G75*
G02*
X-141200507Y-17972653I-106066J-106066D01*
G01*
X-141200507Y-17972653D01*
G75*
G02*
X-141412639Y-17972653I-106066J106066D01*
G01*
G37*
G36*
G01*
X-141766192Y-18326206D02*
X-142597042Y-17495356D01*
G75*
G02*
X-142597042Y-17283224I106066J106066D01*
G01*
X-142597042Y-17283224D01*
G75*
G02*
X-142384910Y-17283224I106066J-106066D01*
G01*
X-141554060Y-18114074D01*
G75*
G02*
X-141554060Y-18326206I-106066J-106066D01*
G01*
X-141554060Y-18326206D01*
G75*
G02*
X-141766192Y-18326206I-106066J106066D01*
G01*
G37*
G36*
G01*
X-142119746Y-18679760D02*
X-142950596Y-17848910D01*
G75*
G02*
X-142950596Y-17636778I106066J106066D01*
G01*
X-142950596Y-17636778D01*
G75*
G02*
X-142738464Y-17636778I106066J-106066D01*
G01*
X-141907614Y-18467628D01*
G75*
G02*
X-141907614Y-18679760I-106066J-106066D01*
G01*
X-141907614Y-18679760D01*
G75*
G02*
X-142119746Y-18679760I-106066J106066D01*
G01*
G37*
G36*
G01*
X-142473299Y-19033313D02*
X-143304149Y-18202463D01*
G75*
G02*
X-143304149Y-17990331I106066J106066D01*
G01*
X-143304149Y-17990331D01*
G75*
G02*
X-143092017Y-17990331I106066J-106066D01*
G01*
X-142261167Y-18821181D01*
G75*
G02*
X-142261167Y-19033313I-106066J-106066D01*
G01*
X-142261167Y-19033313D01*
G75*
G02*
X-142473299Y-19033313I-106066J106066D01*
G01*
G37*
G36*
G01*
X-142826853Y-19386867D02*
X-143657703Y-18556017D01*
G75*
G02*
X-143657703Y-18343885I106066J106066D01*
G01*
X-143657703Y-18343885D01*
G75*
G02*
X-143445571Y-18343885I106066J-106066D01*
G01*
X-142614721Y-19174735D01*
G75*
G02*
X-142614721Y-19386867I-106066J-106066D01*
G01*
X-142614721Y-19386867D01*
G75*
G02*
X-142826853Y-19386867I-106066J106066D01*
G01*
G37*
G36*
G01*
X-145655279Y-19386867D02*
X-145655279Y-19386867D01*
G75*
G02*
X-145655279Y-19174735I106066J106066D01*
G01*
X-144824429Y-18343885D01*
G75*
G02*
X-144612297Y-18343885I106066J-106066D01*
G01*
X-144612297Y-18343885D01*
G75*
G02*
X-144612297Y-18556017I-106066J-106066D01*
G01*
X-145443147Y-19386867D01*
G75*
G02*
X-145655279Y-19386867I-106066J106066D01*
G01*
G37*
G36*
G01*
X-146008833Y-19033313D02*
X-146008833Y-19033313D01*
G75*
G02*
X-146008833Y-18821181I106066J106066D01*
G01*
X-145177983Y-17990331D01*
G75*
G02*
X-144965851Y-17990331I106066J-106066D01*
G01*
X-144965851Y-17990331D01*
G75*
G02*
X-144965851Y-18202463I-106066J-106066D01*
G01*
X-145796701Y-19033313D01*
G75*
G02*
X-146008833Y-19033313I-106066J106066D01*
G01*
G37*
G36*
G01*
X-146362386Y-18679760D02*
X-146362386Y-18679760D01*
G75*
G02*
X-146362386Y-18467628I106066J106066D01*
G01*
X-145531536Y-17636778D01*
G75*
G02*
X-145319404Y-17636778I106066J-106066D01*
G01*
X-145319404Y-17636778D01*
G75*
G02*
X-145319404Y-17848910I-106066J-106066D01*
G01*
X-146150254Y-18679760D01*
G75*
G02*
X-146362386Y-18679760I-106066J106066D01*
G01*
G37*
G36*
G01*
X-146715940Y-18326206D02*
X-146715940Y-18326206D01*
G75*
G02*
X-146715940Y-18114074I106066J106066D01*
G01*
X-145885090Y-17283224D01*
G75*
G02*
X-145672958Y-17283224I106066J-106066D01*
G01*
X-145672958Y-17283224D01*
G75*
G02*
X-145672958Y-17495356I-106066J-106066D01*
G01*
X-146503808Y-18326206D01*
G75*
G02*
X-146715940Y-18326206I-106066J106066D01*
G01*
G37*
G36*
G01*
X-147069493Y-17972653D02*
X-147069493Y-17972653D01*
G75*
G02*
X-147069493Y-17760521I106066J106066D01*
G01*
X-146238643Y-16929671D01*
G75*
G02*
X-146026511Y-16929671I106066J-106066D01*
G01*
X-146026511Y-16929671D01*
G75*
G02*
X-146026511Y-17141803I-106066J-106066D01*
G01*
X-146857361Y-17972653D01*
G75*
G02*
X-147069493Y-17972653I-106066J106066D01*
G01*
G37*
G36*
G01*
X-147423046Y-17619100D02*
X-147423046Y-17619100D01*
G75*
G02*
X-147423046Y-17406968I106066J106066D01*
G01*
X-146592196Y-16576118D01*
G75*
G02*
X-146380064Y-16576118I106066J-106066D01*
G01*
X-146380064Y-16576118D01*
G75*
G02*
X-146380064Y-16788250I-106066J-106066D01*
G01*
X-147210914Y-17619100D01*
G75*
G02*
X-147423046Y-17619100I-106066J106066D01*
G01*
G37*
G36*
G01*
X-147776600Y-17265546D02*
X-147776600Y-17265546D01*
G75*
G02*
X-147776600Y-17053414I106066J106066D01*
G01*
X-146945750Y-16222564D01*
G75*
G02*
X-146733618Y-16222564I106066J-106066D01*
G01*
X-146733618Y-16222564D01*
G75*
G02*
X-146733618Y-16434696I-106066J-106066D01*
G01*
X-147564468Y-17265546D01*
G75*
G02*
X-147776600Y-17265546I-106066J106066D01*
G01*
G37*
G36*
G01*
X-148130153Y-16911993D02*
X-148130153Y-16911993D01*
G75*
G02*
X-148130153Y-16699861I106066J106066D01*
G01*
X-147299303Y-15869011D01*
G75*
G02*
X-147087171Y-15869011I106066J-106066D01*
G01*
X-147087171Y-15869011D01*
G75*
G02*
X-147087171Y-16081143I-106066J-106066D01*
G01*
X-147918021Y-16911993D01*
G75*
G02*
X-148130153Y-16911993I-106066J106066D01*
G01*
G37*
G36*
G01*
X-148483706Y-16558440D02*
X-148483706Y-16558440D01*
G75*
G02*
X-148483706Y-16346308I106066J106066D01*
G01*
X-147652856Y-15515458D01*
G75*
G02*
X-147440724Y-15515458I106066J-106066D01*
G01*
X-147440724Y-15515458D01*
G75*
G02*
X-147440724Y-15727590I-106066J-106066D01*
G01*
X-148271574Y-16558440D01*
G75*
G02*
X-148483706Y-16558440I-106066J106066D01*
G01*
G37*
G36*
G01*
X-148837260Y-16204886D02*
X-148837260Y-16204886D01*
G75*
G02*
X-148837260Y-15992754I106066J106066D01*
G01*
X-148006410Y-15161904D01*
G75*
G02*
X-147794278Y-15161904I106066J-106066D01*
G01*
X-147794278Y-15161904D01*
G75*
G02*
X-147794278Y-15374036I-106066J-106066D01*
G01*
X-148625128Y-16204886D01*
G75*
G02*
X-148837260Y-16204886I-106066J106066D01*
G01*
G37*
G36*
G01*
X-149190813Y-15851333D02*
X-149190813Y-15851333D01*
G75*
G02*
X-149190813Y-15639201I106066J106066D01*
G01*
X-148359963Y-14808351D01*
G75*
G02*
X-148147831Y-14808351I106066J-106066D01*
G01*
X-148147831Y-14808351D01*
G75*
G02*
X-148147831Y-15020483I-106066J-106066D01*
G01*
X-148978681Y-15851333D01*
G75*
G02*
X-149190813Y-15851333I-106066J106066D01*
G01*
G37*
D13*
G36*
X-149438301Y-15603845D02*
G01*
X-149650433Y-15391713D01*
X-148607451Y-14348731D01*
X-148395319Y-14560863D01*
X-149438301Y-15603845D01*
G37*
%TD*%
D14*
%TO.C,SWRST1*%
X-315585000Y-37790000D03*
X-321785000Y-37790000D03*
X-315585000Y-34090000D03*
X-321785000Y-34090000D03*
%TD*%
%TO.C,RRST1*%
G36*
G01*
X-303128751Y-35587499D02*
X-302228749Y-35587499D01*
G75*
G02*
X-301978750Y-35837498I0J-249999D01*
G01*
X-301978750Y-36487500D01*
G75*
G02*
X-302228749Y-36737499I-249999J0D01*
G01*
X-303128751Y-36737499D01*
G75*
G02*
X-303378750Y-36487500I0J249999D01*
G01*
X-303378750Y-35837498D01*
G75*
G02*
X-303128751Y-35587499I249999J0D01*
G01*
G37*
G36*
G01*
X-303128751Y-33537499D02*
X-302228749Y-33537499D01*
G75*
G02*
X-301978750Y-33787498I0J-249999D01*
G01*
X-301978750Y-34437500D01*
G75*
G02*
X-302228749Y-34687499I-249999J0D01*
G01*
X-303128751Y-34687499D01*
G75*
G02*
X-303378750Y-34437500I0J249999D01*
G01*
X-303378750Y-33787498D01*
G75*
G02*
X-303128751Y-33537499I249999J0D01*
G01*
G37*
%TD*%
%TO.C,RCC2*%
G36*
G01*
X-145368749Y39457500D02*
X-146268751Y39457500D01*
G75*
G02*
X-146518750Y39707499I0J249999D01*
G01*
X-146518750Y40357501D01*
G75*
G02*
X-146268751Y40607500I249999J0D01*
G01*
X-145368749Y40607500D01*
G75*
G02*
X-145118750Y40357501I0J-249999D01*
G01*
X-145118750Y39707499D01*
G75*
G02*
X-145368749Y39457500I-249999J0D01*
G01*
G37*
G36*
G01*
X-145368749Y37407500D02*
X-146268751Y37407500D01*
G75*
G02*
X-146518750Y37657499I0J249999D01*
G01*
X-146518750Y38307501D01*
G75*
G02*
X-146268751Y38557500I249999J0D01*
G01*
X-145368749Y38557500D01*
G75*
G02*
X-145118750Y38307501I0J-249999D01*
G01*
X-145118750Y37657499D01*
G75*
G02*
X-145368749Y37407500I-249999J0D01*
G01*
G37*
%TD*%
%TO.C,RCC1*%
G36*
G01*
X-142418749Y39452499D02*
X-143318751Y39452499D01*
G75*
G02*
X-143568750Y39702498I0J249999D01*
G01*
X-143568750Y40352500D01*
G75*
G02*
X-143318751Y40602499I249999J0D01*
G01*
X-142418749Y40602499D01*
G75*
G02*
X-142168750Y40352500I0J-249999D01*
G01*
X-142168750Y39702498D01*
G75*
G02*
X-142418749Y39452499I-249999J0D01*
G01*
G37*
G36*
G01*
X-142418749Y37402499D02*
X-143318751Y37402499D01*
G75*
G02*
X-143568750Y37652498I0J249999D01*
G01*
X-143568750Y38302500D01*
G75*
G02*
X-143318751Y38552499I249999J0D01*
G01*
X-142418749Y38552499D01*
G75*
G02*
X-142168750Y38302500I0J-249999D01*
G01*
X-142168750Y37652498D01*
G75*
G02*
X-142418749Y37402499I-249999J0D01*
G01*
G37*
%TD*%
D15*
%TO.C,QRST1*%
X-307848750Y-38742500D03*
X-309848750Y-39692500D03*
X-309848750Y-37792500D03*
%TD*%
%TO.C,J1*%
G36*
G01*
X-140585000Y44472500D02*
X-140585000Y43322500D01*
G75*
G02*
X-140735000Y43172500I-150000J0D01*
G01*
X-141035000Y43172500D01*
G75*
G02*
X-141185000Y43322500I0J150000D01*
G01*
X-141185000Y44472500D01*
G75*
G02*
X-141035000Y44622500I150000J0D01*
G01*
X-140735000Y44622500D01*
G75*
G02*
X-140585000Y44472500I0J-150000D01*
G01*
G37*
G36*
G01*
X-142235000Y44547500D02*
X-142235000Y43247500D01*
G75*
G02*
X-142310000Y43172500I-75000J0D01*
G01*
X-142460000Y43172500D01*
G75*
G02*
X-142535000Y43247500I0J75000D01*
G01*
X-142535000Y44547500D01*
G75*
G02*
X-142460000Y44622500I75000J0D01*
G01*
X-142310000Y44622500D01*
G75*
G02*
X-142235000Y44547500I0J-75000D01*
G01*
G37*
G36*
G01*
X-142735000Y44547500D02*
X-142735000Y43247500D01*
G75*
G02*
X-142810000Y43172500I-75000J0D01*
G01*
X-142960000Y43172500D01*
G75*
G02*
X-143035000Y43247500I0J75000D01*
G01*
X-143035000Y44547500D01*
G75*
G02*
X-142960000Y44622500I75000J0D01*
G01*
X-142810000Y44622500D01*
G75*
G02*
X-142735000Y44547500I0J-75000D01*
G01*
G37*
G36*
G01*
X-143235000Y44547500D02*
X-143235000Y43247500D01*
G75*
G02*
X-143310000Y43172500I-75000J0D01*
G01*
X-143460000Y43172500D01*
G75*
G02*
X-143535000Y43247500I0J75000D01*
G01*
X-143535000Y44547500D01*
G75*
G02*
X-143460000Y44622500I75000J0D01*
G01*
X-143310000Y44622500D01*
G75*
G02*
X-143235000Y44547500I0J-75000D01*
G01*
G37*
G36*
G01*
X-143731000Y44547500D02*
X-143731000Y43247500D01*
G75*
G02*
X-143806000Y43172500I-75000J0D01*
G01*
X-143956000Y43172500D01*
G75*
G02*
X-144031000Y43247500I0J75000D01*
G01*
X-144031000Y44547500D01*
G75*
G02*
X-143956000Y44622500I75000J0D01*
G01*
X-143806000Y44622500D01*
G75*
G02*
X-143731000Y44547500I0J-75000D01*
G01*
G37*
G36*
G01*
X-145735000Y44547500D02*
X-145735000Y43247500D01*
G75*
G02*
X-145810000Y43172500I-75000J0D01*
G01*
X-145960000Y43172500D01*
G75*
G02*
X-146035000Y43247500I0J75000D01*
G01*
X-146035000Y44547500D01*
G75*
G02*
X-145960000Y44622500I75000J0D01*
G01*
X-145810000Y44622500D01*
G75*
G02*
X-145735000Y44547500I0J-75000D01*
G01*
G37*
G36*
G01*
X-145235000Y44547500D02*
X-145235000Y43247500D01*
G75*
G02*
X-145310000Y43172500I-75000J0D01*
G01*
X-145460000Y43172500D01*
G75*
G02*
X-145535000Y43247500I0J75000D01*
G01*
X-145535000Y44547500D01*
G75*
G02*
X-145460000Y44622500I75000J0D01*
G01*
X-145310000Y44622500D01*
G75*
G02*
X-145235000Y44547500I0J-75000D01*
G01*
G37*
G36*
G01*
X-144735000Y44547500D02*
X-144735000Y43247500D01*
G75*
G02*
X-144810000Y43172500I-75000J0D01*
G01*
X-144960000Y43172500D01*
G75*
G02*
X-145035000Y43247500I0J75000D01*
G01*
X-145035000Y44547500D01*
G75*
G02*
X-144960000Y44622500I75000J0D01*
G01*
X-144810000Y44622500D01*
G75*
G02*
X-144735000Y44547500I0J-75000D01*
G01*
G37*
G36*
G01*
X-144235000Y44547500D02*
X-144235000Y43247500D01*
G75*
G02*
X-144310000Y43172500I-75000J0D01*
G01*
X-144460000Y43172500D01*
G75*
G02*
X-144535000Y43247500I0J75000D01*
G01*
X-144535000Y44547500D01*
G75*
G02*
X-144460000Y44622500I75000J0D01*
G01*
X-144310000Y44622500D01*
G75*
G02*
X-144235000Y44547500I0J-75000D01*
G01*
G37*
G36*
G01*
X-141385000Y44472500D02*
X-141385000Y43322500D01*
G75*
G02*
X-141535000Y43172500I-150000J0D01*
G01*
X-141835000Y43172500D01*
G75*
G02*
X-141985000Y43322500I0J150000D01*
G01*
X-141985000Y44472500D01*
G75*
G02*
X-141835000Y44622500I150000J0D01*
G01*
X-141535000Y44622500D01*
G75*
G02*
X-141385000Y44472500I0J-150000D01*
G01*
G37*
G36*
G01*
X-147085000Y44472500D02*
X-147085000Y43322500D01*
G75*
G02*
X-147235000Y43172500I-150000J0D01*
G01*
X-147535000Y43172500D01*
G75*
G02*
X-147685000Y43322500I0J150000D01*
G01*
X-147685000Y44472500D01*
G75*
G02*
X-147535000Y44622500I150000J0D01*
G01*
X-147235000Y44622500D01*
G75*
G02*
X-147085000Y44472500I0J-150000D01*
G01*
G37*
G36*
G01*
X-146285000Y44472500D02*
X-146285000Y43322500D01*
G75*
G02*
X-146435000Y43172500I-150000J0D01*
G01*
X-146735000Y43172500D01*
G75*
G02*
X-146885000Y43322500I0J150000D01*
G01*
X-146885000Y44472500D01*
G75*
G02*
X-146735000Y44622500I150000J0D01*
G01*
X-146435000Y44622500D01*
G75*
G02*
X-146285000Y44472500I0J-150000D01*
G01*
G37*
%TD*%
D11*
%TO.C,DS33*%
X-137518750Y25807500D03*
X-137518750Y29107500D03*
%TD*%
D16*
%TO.C,DRST1*%
X-310518750Y-32682500D03*
X-307218750Y-32682500D03*
%TD*%
%TO.C,DF1*%
X-153688750Y29807500D03*
X-150388750Y29807500D03*
%TD*%
D11*
%TO.C,D108*%
X-80962500Y37200000D03*
X-80962500Y40500000D03*
%TD*%
%TO.C,D107*%
X-83343750Y-36637500D03*
X-83343750Y-33337500D03*
%TD*%
%TO.C,D106*%
X-102393750Y-36637500D03*
X-102393750Y-33337500D03*
%TD*%
%TO.C,D103*%
X-414337500Y-36637500D03*
X-414337500Y-33337500D03*
%TD*%
%TO.C,D102*%
X-390525000Y-36637500D03*
X-390525000Y-33337500D03*
%TD*%
%TO.C,D101*%
X-366680750Y-36510500D03*
X-366680750Y-33210500D03*
%TD*%
%TO.C,D100*%
X-342900000Y-36637500D03*
X-342900000Y-33337500D03*
%TD*%
%TO.C,D99*%
X-271462500Y-36637500D03*
X-271462500Y-33337500D03*
%TD*%
%TO.C,D98*%
X-200025000Y-36637500D03*
X-200025000Y-33337500D03*
%TD*%
%TO.C,D97*%
X-176241710Y-36967700D03*
X-176241710Y-33667700D03*
%TD*%
%TO.C,D96*%
X-152400000Y-36637500D03*
X-152400000Y-33337500D03*
%TD*%
%TO.C,D95*%
X-73818750Y-15937500D03*
X-73818750Y-12637500D03*
%TD*%
%TO.C,D94*%
X-83343750Y-15937500D03*
X-83343750Y-12637500D03*
%TD*%
%TO.C,D93*%
X-102393750Y-15937500D03*
X-102393750Y-12637500D03*
%TD*%
%TO.C,D92*%
X-121443750Y-15937500D03*
X-121443750Y-12637500D03*
%TD*%
%TO.C,D90*%
X-390525000Y-15937500D03*
X-390525000Y-12637500D03*
%TD*%
%TO.C,D89*%
X-364331250Y-15937500D03*
X-364331250Y-12637500D03*
%TD*%
%TO.C,D88*%
X-345281250Y-15906250D03*
X-345281250Y-12606250D03*
%TD*%
%TO.C,D87*%
X-326231250Y-15906250D03*
X-326231250Y-12606250D03*
%TD*%
%TO.C,D86*%
X-307181250Y-15906250D03*
X-307181250Y-12606250D03*
%TD*%
%TO.C,D85*%
X-288131250Y-15937500D03*
X-288131250Y-12637500D03*
%TD*%
%TO.C,D84*%
X-269081250Y-15937500D03*
X-269081250Y-12637500D03*
%TD*%
%TO.C,D83*%
X-250069350Y-15994380D03*
X-250069350Y-12694380D03*
%TD*%
%TO.C,D82*%
X-230981250Y-15937500D03*
X-230981250Y-12637500D03*
%TD*%
%TO.C,D81*%
X-211931250Y-15937500D03*
X-211931250Y-12637500D03*
%TD*%
%TO.C,D80*%
X-192881250Y-16162500D03*
X-192881250Y-12862500D03*
%TD*%
%TO.C,D79*%
X-169068750Y-15937500D03*
X-169068750Y-12637500D03*
%TD*%
%TO.C,D77*%
X-83343750Y731250D03*
X-83343750Y4031250D03*
%TD*%
%TO.C,D76*%
X-102393750Y731250D03*
X-102393750Y4031250D03*
%TD*%
%TO.C,D75*%
X-121443750Y1462500D03*
X-121443750Y4762500D03*
%TD*%
%TO.C,D73*%
X-392906250Y1462500D03*
X-392906250Y4762500D03*
%TD*%
%TO.C,D72*%
X-373856250Y1462500D03*
X-373856250Y4762500D03*
%TD*%
%TO.C,D71*%
X-354806250Y4762500D03*
X-354806250Y1462500D03*
%TD*%
%TO.C,D70*%
X-335756250Y1462500D03*
X-335756250Y4762500D03*
%TD*%
%TO.C,D69*%
X-316932310Y1466580D03*
X-316932310Y4766580D03*
%TD*%
%TO.C,D68*%
X-297656250Y1462500D03*
X-297656250Y4762500D03*
%TD*%
%TO.C,D67*%
X-278606250Y1462500D03*
X-278606250Y4762500D03*
%TD*%
%TO.C,D66*%
X-259556250Y1462500D03*
X-259556250Y4762500D03*
%TD*%
%TO.C,D65*%
X-240506250Y1462500D03*
X-240506250Y4762500D03*
%TD*%
%TO.C,D64*%
X-221456250Y1462500D03*
X-221456250Y4762500D03*
%TD*%
%TO.C,D63*%
X-202406250Y1462500D03*
X-202406250Y4762500D03*
%TD*%
%TO.C,D62*%
X-183356250Y731250D03*
X-183356250Y4031250D03*
%TD*%
%TO.C,D61*%
X-152400000Y1462500D03*
X-152400000Y4762500D03*
%TD*%
%TO.C,D59*%
X-80962500Y731250D03*
X-80962500Y4031250D03*
%TD*%
%TO.C,D57*%
X-83343750Y22893750D03*
X-83343750Y26193750D03*
%TD*%
%TO.C,D56*%
X-102393750Y20512500D03*
X-102393750Y23812500D03*
%TD*%
%TO.C,D55*%
X-121443750Y20657107D03*
X-121443750Y23957107D03*
%TD*%
%TO.C,D53*%
X-409575000Y20512500D03*
X-409575000Y23812500D03*
%TD*%
%TO.C,D52*%
X-388143750Y20512500D03*
X-388143750Y23812500D03*
%TD*%
%TO.C,D51*%
X-369093750Y20644607D03*
X-369093750Y23944607D03*
%TD*%
%TO.C,D50*%
X-350043750Y20512500D03*
X-350043750Y23812500D03*
%TD*%
%TO.C,D49*%
X-330993750Y20657106D03*
X-330993750Y23957106D03*
%TD*%
%TO.C,D48*%
X-311943750Y20512500D03*
X-311943750Y23812500D03*
%TD*%
%TO.C,D47*%
X-292893750Y20657107D03*
X-292893750Y23957107D03*
%TD*%
%TO.C,D46*%
X-273868750Y20662500D03*
X-273868750Y23962500D03*
%TD*%
%TO.C,D45*%
X-254793750Y20512500D03*
X-254793750Y23812500D03*
%TD*%
%TO.C,D44*%
X-235743750Y20657107D03*
X-235743750Y23957107D03*
%TD*%
%TO.C,D43*%
X-216693750Y20657107D03*
X-216693750Y23957107D03*
%TD*%
%TO.C,D42*%
X-197643750Y20512500D03*
X-197643750Y23812500D03*
%TD*%
%TO.C,D41*%
X-178618750Y20487500D03*
X-178618750Y23787500D03*
%TD*%
%TO.C,D40*%
X-154781250Y20512500D03*
X-154781250Y23812500D03*
%TD*%
%TO.C,D39*%
X-83343750Y37200000D03*
X-83343750Y40500000D03*
%TD*%
%TO.C,D38*%
X-102393750Y37200000D03*
X-102393750Y40500000D03*
%TD*%
%TO.C,D37*%
X-121443750Y37181250D03*
X-121443750Y40481250D03*
%TD*%
%TO.C,D34*%
X-176168750Y-15862500D03*
X-176168750Y-12562500D03*
%TD*%
%TO.C,D33*%
X-407193750Y37181250D03*
X-407193750Y40481250D03*
%TD*%
%TO.C,D32*%
X-378618750Y37181250D03*
X-378618750Y40481250D03*
%TD*%
%TO.C,D31*%
X-359568750Y37200000D03*
X-359568750Y40500000D03*
%TD*%
%TO.C,D30*%
X-340518750Y37181250D03*
X-340518750Y40481250D03*
%TD*%
%TO.C,D29*%
X-321468750Y37181249D03*
X-321468750Y40481249D03*
%TD*%
%TO.C,D28*%
X-302418750Y37181250D03*
X-302418750Y40481250D03*
%TD*%
%TO.C,D27*%
X-283368750Y37200000D03*
X-283368750Y40500000D03*
%TD*%
%TO.C,D26*%
X-264318750Y37200000D03*
X-264318750Y40500000D03*
%TD*%
%TO.C,D25*%
X-245268750Y37181250D03*
X-245268750Y40481250D03*
%TD*%
%TO.C,D24*%
X-226218750Y37200000D03*
X-226218750Y40500000D03*
%TD*%
%TO.C,D23*%
X-207168750Y37181250D03*
X-207168750Y40481250D03*
%TD*%
%TO.C,D22*%
X-188118750Y37181250D03*
X-188118750Y40481250D03*
%TD*%
%TO.C,D21*%
X-169068750Y37181250D03*
X-169068750Y40481250D03*
%TD*%
%TO.C,D20*%
X-166687500Y37181250D03*
X-166687500Y40481250D03*
%TD*%
%TO.C,D1*%
X-128587500Y-36637500D03*
X-128587500Y-33337500D03*
%TD*%
%TO.C,CUSB1*%
G36*
G01*
X-148238749Y35682501D02*
X-149138751Y35682501D01*
G75*
G02*
X-149388750Y35932500I0J249999D01*
G01*
X-149388750Y36582502D01*
G75*
G02*
X-149138751Y36832501I249999J0D01*
G01*
X-148238749Y36832501D01*
G75*
G02*
X-147988750Y36582502I0J-249999D01*
G01*
X-147988750Y35932500D01*
G75*
G02*
X-148238749Y35682501I-249999J0D01*
G01*
G37*
G36*
G01*
X-148238749Y33632501D02*
X-149138751Y33632501D01*
G75*
G02*
X-149388750Y33882500I0J249999D01*
G01*
X-149388750Y34532502D01*
G75*
G02*
X-149138751Y34782501I249999J0D01*
G01*
X-148238749Y34782501D01*
G75*
G02*
X-147988750Y34532502I0J-249999D01*
G01*
X-147988750Y33882500D01*
G75*
G02*
X-148238749Y33632501I-249999J0D01*
G01*
G37*
%TD*%
%TO.C,CSH1*%
G36*
G01*
X-138258749Y39542499D02*
X-139158751Y39542499D01*
G75*
G02*
X-139408750Y39792498I0J249999D01*
G01*
X-139408750Y40442500D01*
G75*
G02*
X-139158751Y40692499I249999J0D01*
G01*
X-138258749Y40692499D01*
G75*
G02*
X-138008750Y40442500I0J-249999D01*
G01*
X-138008750Y39792498D01*
G75*
G02*
X-138258749Y39542499I-249999J0D01*
G01*
G37*
G36*
G01*
X-138258749Y37492499D02*
X-139158751Y37492499D01*
G75*
G02*
X-139408750Y37742498I0J249999D01*
G01*
X-139408750Y38392500D01*
G75*
G02*
X-139158751Y38642499I249999J0D01*
G01*
X-138258749Y38642499D01*
G75*
G02*
X-138008750Y38392500I0J-249999D01*
G01*
X-138008750Y37742498D01*
G75*
G02*
X-138258749Y37492499I-249999J0D01*
G01*
G37*
%TD*%
%TO.C,CRST2*%
G36*
G01*
X-301553750Y-40222501D02*
X-301553750Y-39322499D01*
G75*
G02*
X-301303751Y-39072500I249999J0D01*
G01*
X-300653749Y-39072500D01*
G75*
G02*
X-300403750Y-39322499I0J-249999D01*
G01*
X-300403750Y-40222501D01*
G75*
G02*
X-300653749Y-40472500I-249999J0D01*
G01*
X-301303751Y-40472500D01*
G75*
G02*
X-301553750Y-40222501I0J249999D01*
G01*
G37*
G36*
G01*
X-303603750Y-40222501D02*
X-303603750Y-39322499D01*
G75*
G02*
X-303353751Y-39072500I249999J0D01*
G01*
X-302703749Y-39072500D01*
G75*
G02*
X-302453750Y-39322499I0J-249999D01*
G01*
X-302453750Y-40222501D01*
G75*
G02*
X-302703749Y-40472500I-249999J0D01*
G01*
X-303353751Y-40472500D01*
G75*
G02*
X-303603750Y-40222501I0J249999D01*
G01*
G37*
%TD*%
%TO.C,CRST1*%
G36*
G01*
X-297038749Y-34672500D02*
X-297938751Y-34672500D01*
G75*
G02*
X-298188750Y-34422501I0J249999D01*
G01*
X-298188750Y-33772499D01*
G75*
G02*
X-297938751Y-33522500I249999J0D01*
G01*
X-297038749Y-33522500D01*
G75*
G02*
X-296788750Y-33772499I0J-249999D01*
G01*
X-296788750Y-34422501D01*
G75*
G02*
X-297038749Y-34672500I-249999J0D01*
G01*
G37*
G36*
G01*
X-297038749Y-36722500D02*
X-297938751Y-36722500D01*
G75*
G02*
X-298188750Y-36472501I0J249999D01*
G01*
X-298188750Y-35822499D01*
G75*
G02*
X-297938751Y-35572500I249999J0D01*
G01*
X-297038749Y-35572500D01*
G75*
G02*
X-296788750Y-35822499I0J-249999D01*
G01*
X-296788750Y-36472501D01*
G75*
G02*
X-297038749Y-36722500I-249999J0D01*
G01*
G37*
%TD*%
%TO.C,CRO1*%
G36*
G01*
X-145963751Y20687499D02*
X-145963751Y21587501D01*
G75*
G02*
X-145713752Y21837500I249999J0D01*
G01*
X-145063750Y21837500D01*
G75*
G02*
X-144813751Y21587501I0J-249999D01*
G01*
X-144813751Y20687499D01*
G75*
G02*
X-145063750Y20437500I-249999J0D01*
G01*
X-145713752Y20437500D01*
G75*
G02*
X-145963751Y20687499I0J249999D01*
G01*
G37*
G36*
G01*
X-148013751Y20687499D02*
X-148013751Y21587501D01*
G75*
G02*
X-147763752Y21837500I249999J0D01*
G01*
X-147113750Y21837500D01*
G75*
G02*
X-146863751Y21587501I0J-249999D01*
G01*
X-146863751Y20687499D01*
G75*
G02*
X-147113750Y20437500I-249999J0D01*
G01*
X-147763752Y20437500D01*
G75*
G02*
X-148013751Y20687499I0J249999D01*
G01*
G37*
%TD*%
%TO.C,CF1*%
G36*
G01*
X-151383750Y25607499D02*
X-151383750Y26507501D01*
G75*
G02*
X-151133751Y26757500I249999J0D01*
G01*
X-150483749Y26757500D01*
G75*
G02*
X-150233750Y26507501I0J-249999D01*
G01*
X-150233750Y25607499D01*
G75*
G02*
X-150483749Y25357500I-249999J0D01*
G01*
X-151133751Y25357500D01*
G75*
G02*
X-151383750Y25607499I0J249999D01*
G01*
G37*
G36*
G01*
X-153433750Y25607499D02*
X-153433750Y26507501D01*
G75*
G02*
X-153183751Y26757500I249999J0D01*
G01*
X-152533749Y26757500D01*
G75*
G02*
X-152283750Y26507501I0J-249999D01*
G01*
X-152283750Y25607499D01*
G75*
G02*
X-152533749Y25357500I-249999J0D01*
G01*
X-153183751Y25357500D01*
G75*
G02*
X-153433750Y25607499I0J249999D01*
G01*
G37*
%TD*%
%TO.C,CB5*%
G36*
G01*
X-154082749Y-15556104D02*
X-154719146Y-16192501D01*
G75*
G02*
X-155072698Y-16192501I-176776J176776D01*
G01*
X-155532319Y-15732880D01*
G75*
G02*
X-155532319Y-15379328I176776J176776D01*
G01*
X-154895922Y-14742931D01*
G75*
G02*
X-154542370Y-14742931I176776J-176776D01*
G01*
X-154082749Y-15202552D01*
G75*
G02*
X-154082749Y-15556104I-176776J-176776D01*
G01*
G37*
G36*
G01*
X-152633181Y-17005672D02*
X-153269578Y-17642069D01*
G75*
G02*
X-153623130Y-17642069I-176776J176776D01*
G01*
X-154082751Y-17182448D01*
G75*
G02*
X-154082751Y-16828896I176776J176776D01*
G01*
X-153446354Y-16192499D01*
G75*
G02*
X-153092802Y-16192499I176776J-176776D01*
G01*
X-152633181Y-16652120D01*
G75*
G02*
X-152633181Y-17005672I-176776J-176776D01*
G01*
G37*
%TD*%
%TO.C,CB4*%
G36*
G01*
X-139858751Y-6160896D02*
X-139222354Y-5524499D01*
G75*
G02*
X-138868802Y-5524499I176776J-176776D01*
G01*
X-138409181Y-5984120D01*
G75*
G02*
X-138409181Y-6337672I-176776J-176776D01*
G01*
X-139045578Y-6974069D01*
G75*
G02*
X-139399130Y-6974069I-176776J176776D01*
G01*
X-139858751Y-6514448D01*
G75*
G02*
X-139858751Y-6160896I176776J176776D01*
G01*
G37*
G36*
G01*
X-141308319Y-4711328D02*
X-140671922Y-4074931D01*
G75*
G02*
X-140318370Y-4074931I176776J-176776D01*
G01*
X-139858749Y-4534552D01*
G75*
G02*
X-139858749Y-4888104I-176776J-176776D01*
G01*
X-140495146Y-5524501D01*
G75*
G02*
X-140848698Y-5524501I-176776J176776D01*
G01*
X-141308319Y-5064880D01*
G75*
G02*
X-141308319Y-4711328I176776J176776D01*
G01*
G37*
%TD*%
%TO.C,CB3*%
G36*
G01*
X-152213570Y-8863717D02*
X-152849967Y-8227320D01*
G75*
G02*
X-152849967Y-7873768I176776J176776D01*
G01*
X-152390346Y-7414147D01*
G75*
G02*
X-152036794Y-7414147I176776J-176776D01*
G01*
X-151400397Y-8050544D01*
G75*
G02*
X-151400397Y-8404096I-176776J-176776D01*
G01*
X-151860018Y-8863717D01*
G75*
G02*
X-152213570Y-8863717I-176776J176776D01*
G01*
G37*
G36*
G01*
X-153663138Y-10313285D02*
X-154299535Y-9676888D01*
G75*
G02*
X-154299535Y-9323336I176776J176776D01*
G01*
X-153839914Y-8863715D01*
G75*
G02*
X-153486362Y-8863715I176776J-176776D01*
G01*
X-152849965Y-9500112D01*
G75*
G02*
X-152849965Y-9853664I-176776J-176776D01*
G01*
X-153309586Y-10313285D01*
G75*
G02*
X-153663138Y-10313285I-176776J176776D01*
G01*
G37*
%TD*%
%TO.C,CB2*%
G36*
G01*
X-150018749Y-20636104D02*
X-150655146Y-21272501D01*
G75*
G02*
X-151008698Y-21272501I-176776J176776D01*
G01*
X-151468319Y-20812880D01*
G75*
G02*
X-151468319Y-20459328I176776J176776D01*
G01*
X-150831922Y-19822931D01*
G75*
G02*
X-150478370Y-19822931I176776J-176776D01*
G01*
X-150018749Y-20282552D01*
G75*
G02*
X-150018749Y-20636104I-176776J-176776D01*
G01*
G37*
G36*
G01*
X-148569181Y-22085672D02*
X-149205578Y-22722069D01*
G75*
G02*
X-149559130Y-22722069I-176776J176776D01*
G01*
X-150018751Y-22262448D01*
G75*
G02*
X-150018751Y-21908896I176776J176776D01*
G01*
X-149382354Y-21272499D01*
G75*
G02*
X-149028802Y-21272499I176776J-176776D01*
G01*
X-148569181Y-21732120D01*
G75*
G02*
X-148569181Y-22085672I-176776J-176776D01*
G01*
G37*
%TD*%
%TO.C,CB1*%
G36*
G01*
X-135736751Y-12968499D02*
X-134836749Y-12968499D01*
G75*
G02*
X-134586750Y-13218498I0J-249999D01*
G01*
X-134586750Y-13868500D01*
G75*
G02*
X-134836749Y-14118499I-249999J0D01*
G01*
X-135736751Y-14118499D01*
G75*
G02*
X-135986750Y-13868500I0J249999D01*
G01*
X-135986750Y-13218498D01*
G75*
G02*
X-135736751Y-12968499I249999J0D01*
G01*
G37*
G36*
G01*
X-135736751Y-10918499D02*
X-134836749Y-10918499D01*
G75*
G02*
X-134586750Y-11168498I0J-249999D01*
G01*
X-134586750Y-11818500D01*
G75*
G02*
X-134836749Y-12068499I-249999J0D01*
G01*
X-135736751Y-12068499D01*
G75*
G02*
X-135986750Y-11818500I0J249999D01*
G01*
X-135986750Y-11168498D01*
G75*
G02*
X-135736751Y-10918499I249999J0D01*
G01*
G37*
%TD*%
M02*
