M48
; DRILL file {KiCad (5.1.6)-1} date 09/01/20 10:18:45
; FORMAT={3:3/ absolute / metric / suppress leading zeros}
; #@! TF.CreationDate,2020-09-01T10:18:45+02:00
; #@! TF.GenerationSoftware,Kicad,Pcbnew,(5.1.6)-1
FMAT,2
METRIC,TZ
T1C0.300
T2C0.600
T3C0.991
T4C1.000
T5C1.016
T6C1.524
T7C1.525
T8C0.650
T9C1.702
T10C3.048
T11C3.988
%
G90
G05
T1
X-431867Y1090
X-429734Y-43213
X-428403Y9462
X-427895Y-8191
X-427773Y-6033
X-427133Y445
X-427021Y24148
X-424694Y23386
X-424402Y-6960
X-424339Y-3238
X-423048Y-1222
X-409724Y-41293
X-397496Y-11534
X-395550Y29345
X-374585Y-11748
X-356099Y-11844
X-339137Y-8400
X-336739Y44320
X-320092Y-8030
X-316826Y28517
X-314062Y-34227
X-312345Y-40353
X-309851Y-33871
X-309851Y-43812
X-309841Y-36761
X-305706Y-40810
X-305248Y8415
X-295876Y-33454
X-289917Y-39977
X-286818Y8501
X-286163Y-10036
X-273209Y-43772
X-268815Y8110
X-267595Y-40521
X-264771Y-37960
X-260900Y28999
X-258045Y-35674
X-249480Y8628
X-241809Y-35476
X-236506Y-41369
X-231314Y-37056
X-231167Y-36284
X-230532Y8959
X-224476Y-32032
X-223973Y-32537
X-212152Y-43569
X-209673Y-32917
X-199346Y-43411
X-185848Y-28664
X-185066Y-31996
X-178573Y-28811
X-178218Y-42959
X-170318Y-9406
X-168977Y-39327
X-163424Y-12638
X-161296Y-31189
X-161007Y-37310
X-157613Y-34775
X-155124Y-14288
X-154596Y-9956
X-154377Y-3792
X-154179Y-6673
X-154159Y-18016
X-153956Y-11311
X-153829Y-31966
X-153504Y-32530
X-153341Y-20185
X-152861Y-21958
X-152742Y23533
X-152703Y-5887
X-152485Y3635
X-152397Y7149
X-152272Y-14852
X-152211Y-17460
X-152080Y-5790
X-151825Y7418
X-151807Y-12499
X-151593Y-5391
X-151339Y7818
X-150928Y8296
X-150796Y-5474
X-150760Y-9446
X-150750Y-4768
X-150095Y34293
X-149953Y-4849
X-149841Y-14851
X-149643Y26261
X-149577Y-10411
X-149526Y-18743
X-149496Y-35202
X-149231Y5484
X-149125Y297
X-148739Y8064
X-148581Y-21298
X-148322Y27948
X-148226Y29888
X-147352Y42355
X-147235Y-18865
X-147225Y38164
X-147042Y23203
X-146884Y-20668
X-146849Y36147
X-146605Y42507
X-146341Y29863
X-146270Y-20348
X-146122Y-7775
X-145696Y-19886
X-145411Y19804
X-144873Y-23584
X-144761Y22187
X-144436Y-5839
X-144111Y41852
X-143872Y-8344
X-143400Y41907
X-142688Y29218
X-141749Y42492
X-141667Y-4252
X-141490Y-8711
X-141444Y25753
X-141110Y-9213
X-141012Y-18860
X-141007Y30630
X-140987Y-43985
X-140834Y17630
X-140456Y-9096
X-140296Y23238
X-140293Y-29667
X-140240Y42228
X-140174Y-17590
X-139889Y8801
X-139682Y-9035
X-139625Y23299
X-139411Y-16959
X-139280Y8054
X-139249Y42979
X-139193Y-28054
X-139097Y99
X-139079Y-9215
X-138924Y17620
X-138685Y-14414
X-138670Y-17046
X-138589Y-28644
X-138513Y-8938
X-138447Y32454
X-137964Y5509
X-137923Y-9172
X-137418Y-6099
X-137319Y37910
X-137293Y30127
X-136567Y-23157
X-136404Y-12149
X-134626Y32189
X-134098Y-11499
X-133341Y27760
X-132388Y-10060
X-131563Y-4813
X-129338Y-11661
X-123821Y-12042
X-119894Y40129
X-119397Y-9502
X-117309Y-30544
X-113338Y-10860
X-96669Y-28715
X-76002Y-3692
X-75211Y-6754
X-74667Y22349
X-74621Y19926
X-74454Y27567
X-72904Y27704
X-72788Y-5951
X-69679Y-15187
X-69521Y-44163
X-65940Y-34242
T3
X-142769Y6957
X-142829Y4288
X-142859Y1358
T4
X-251873Y-37148
X-251873Y-39688
X-249333Y-37148
X-249333Y-39688
X-246793Y-37148
X-246793Y-39688
X-244253Y-37148
X-244253Y-39688
X-241713Y-37148
X-241713Y-39688
T5
X-145399Y1358
X-145309Y6957
X-145369Y4288
T6
X-415756Y3009
X-409406Y469
X-165725Y22059
X-159375Y19519
X-422900Y22059
X-416550Y19519
X-410994Y-16041
X-404644Y-18581
X-425281Y-35091
X-418931Y-37631
X-122863Y-35091
X-116513Y-37631
X-163344Y-35091
X-156994Y-37631
X-172869Y-16041
X-166519Y-18581
X-353844Y-35091
X-347494Y-37631
X-75238Y12534
X-68888Y9994
X-377656Y-35091
X-371306Y-37631
X-75238Y-25566
X-68888Y-28106
X-210969Y-35091
X-204619Y-37631
X-282406Y-35091
X-276056Y-37631
X-418138Y41109
X-411788Y38569
X-401469Y-16041
X-395119Y-18581
X-187156Y-35091
X-180806Y-37631
X-163344Y3009
X-156994Y469
X-168106Y3009
X-161756Y469
X-163344Y-16041
X-156994Y-18581
X-401469Y-35091
X-395119Y-37631
X-427821Y4914
X-425281Y11264
T7
X-294313Y41109
X-287963Y38569
X-351463Y41109
X-345113Y38569
X-284787Y22059
X-278438Y19519
X-251450Y3009
X-245100Y469
X-199063Y41109
X-192712Y38569
X-132388Y-35091
X-126038Y-37631
X-113338Y3009
X-106988Y469
X-113338Y-35091
X-106988Y-37631
X-241925Y-16041
X-235575Y-18581
X-132388Y-16041
X-126038Y-18581
X-94288Y-35091
X-87938Y-37631
X-389563Y41109
X-383213Y38569
X-246688Y22059
X-240338Y19519
X-94288Y22059
X-87938Y19519
X-289550Y3009
X-283200Y469
X-256213Y41109
X-249863Y38569
X-346700Y3009
X-340350Y469
X-180013Y41109
X-173663Y38569
X-222875Y-16041
X-216525Y-18581
X-337175Y-16041
X-330825Y-18581
X-94288Y-16041
X-87938Y-18581
X-370513Y41109
X-364162Y38569
X-113338Y22059
X-106988Y19519
X-275263Y41109
X-268912Y38569
X-299075Y-16041
X-292725Y-18581
X-94288Y3009
X-87938Y469
X-280025Y-16041
X-273675Y-18581
X-356225Y-16041
X-349875Y-18581
X-94288Y41109
X-87938Y38569
X-265738Y22059
X-259388Y19519
X-270500Y3009
X-264150Y469
X-427663Y-16041
X-421313Y-18581
X-184775Y-16041
X-178425Y-18581
X-160963Y41109
X-154612Y38569
X-365750Y3009
X-359400Y469
X-318125Y-16041
X-311775Y-18581
X-303838Y22059
X-297488Y19519
X-227638Y22059
X-221288Y19519
X-189538Y22059
X-183188Y19519
X-194300Y3009
X-187950Y469
X-399088Y22059
X-392737Y19519
X-322888Y22059
X-316537Y19519
X-260975Y-16041
X-254625Y-18581
X-237163Y41109
X-230813Y38569
X-384800Y3009
X-378450Y469
X-75238Y41109
X-68888Y38569
X-113338Y-16041
X-106988Y-18581
X-113338Y41109
X-106988Y38569
X-313363Y41109
X-307013Y38569
X-132388Y41109
X-126038Y38569
X-360988Y22059
X-354638Y19519
X-213359Y3011
X-207009Y471
X-232400Y3009
X-226050Y469
X-218113Y41109
X-211763Y38569
X-308600Y3009
X-302250Y469
X-132388Y3009
X-126038Y469
X-375275Y-16041
X-368925Y-18581
X-332369Y41141
X-326019Y38601
X-208588Y22059
X-202237Y19519
X-380037Y22059
X-373688Y19519
X-132388Y22059
X-126038Y19519
X-341938Y22059
X-335588Y19519
X-327650Y3009
X-321300Y469
X-203825Y-16041
X-197475Y-18581
X-403850Y3009
X-397500Y469
T8
X-147025Y45224
X-141245Y45224
T9
X-422741Y12534
X-422741Y2374
X-134927Y-21121
X-124768Y-21121
X-96828Y-40171
X-86668Y-40171
X-392103Y36029
X-381943Y36029
X-249228Y16979
X-239068Y16979
X-96828Y16979
X-86668Y16979
X-292090Y-2071
X-281930Y-2071
X-258753Y36029
X-248593Y36029
X-418296Y-2071
X-408136Y-2071
X-349240Y-2071
X-339080Y-2071
X-182553Y36029
X-172392Y36029
X-225415Y-21121
X-215255Y-21121
X-339715Y-21121
X-329555Y-21121
X-96828Y-21121
X-86668Y-21121
X-168265Y16979
X-158105Y16979
X-373053Y36029
X-362893Y36029
X-115878Y16979
X-105718Y16979
X-425440Y16979
X-415280Y16979
X-413534Y-21121
X-403374Y-21121
X-277803Y36029
X-267642Y36029
X-427821Y-40171
X-417661Y-40171
X-301615Y-21121
X-291455Y-21121
X-125402Y-40171
X-115243Y-40171
X-96828Y-2071
X-86668Y-2071
X-282565Y-21121
X-272405Y-21121
X-358765Y-21121
X-348605Y-21121
X-165884Y-40171
X-155724Y-40171
X-96828Y36029
X-86668Y36029
X-268277Y16979
X-258118Y16979
X-273040Y-2071
X-262880Y-2071
X-175409Y-21121
X-165249Y-21121
X-430203Y-21121
X-420042Y-21121
X-356384Y-40171
X-346224Y-40171
X-187315Y-21121
X-177155Y-21121
X-163503Y36029
X-153343Y36029
X-77778Y7454
X-67618Y7454
X-368290Y-2071
X-358130Y-2071
X-320665Y-21121
X-310505Y-21121
X-306378Y16979
X-296217Y16979
X-230177Y16979
X-220017Y16979
X-192078Y16979
X-181918Y16979
X-196840Y-2071
X-186680Y-2071
X-401628Y16979
X-391468Y16979
X-325428Y16979
X-315267Y16979
X-380196Y-40171
X-370036Y-40171
X-263515Y-21121
X-253355Y-21121
X-239702Y36029
X-229542Y36029
X-77778Y-30646
X-67618Y-30646
X-387340Y-2071
X-377180Y-2071
X-77778Y36029
X-67618Y36029
X-213509Y-40171
X-203349Y-40171
X-115878Y-21121
X-105718Y-21121
X-115878Y36029
X-105718Y36029
X-315902Y36029
X-305743Y36029
X-134927Y36029
X-124768Y36029
X-363528Y16979
X-353368Y16979
X-215899Y-2069
X-205739Y-2069
X-234940Y-2071
X-224780Y-2071
X-220653Y36029
X-210492Y36029
X-311140Y-2071
X-300980Y-2071
X-134927Y-2071
X-124768Y-2071
X-284946Y-40171
X-274786Y-40171
X-377815Y-21121
X-367655Y-21121
X-420678Y36029
X-410518Y36029
X-334909Y36061
X-324749Y36061
X-211128Y16979
X-200968Y16979
X-382578Y16979
X-372418Y16979
X-134927Y16979
X-124768Y16979
X-344478Y16979
X-334318Y16979
X-404009Y-21121
X-393849Y-21121
X-330190Y-2071
X-320030Y-2071
X-206365Y-21121
X-196205Y-21121
X-406390Y-2071
X-396230Y-2071
X-189696Y-40171
X-179536Y-40171
X-296852Y36029
X-286693Y36029
X-354003Y36029
X-343843Y36029
X-287327Y16979
X-277167Y16979
X-253990Y-2071
X-243830Y-2071
X-165884Y-2071
X-155724Y-2071
X-170646Y-2071
X-160486Y-2071
X-201603Y36029
X-191443Y36029
X-165884Y-21121
X-155724Y-21121
X-134927Y-40171
X-124768Y-40171
X-404009Y-40171
X-393849Y-40171
X-115878Y-2071
X-105718Y-2071
X-115878Y-40171
X-105718Y-40171
X-244465Y-21121
X-234305Y-21121
T10
X-429726Y19392
X-429726Y-4484
X-425154Y4914
X-401278Y4914
X-420392Y-14136
X-396516Y-14136
X-132261Y-47156
X-108384Y-47156
X-182267Y-14136
X-158391Y-14136
X-65712Y19392
X-65712Y-4484
X-65712Y-18708
X-65712Y-42584
X-329904Y-47156
X-229828Y-47156
X-427535Y43014
X-403660Y43014
T11
X-225098Y16979
X-186998Y16979
X-191760Y-2071
X-396547Y16979
X-320347Y16979
X-375116Y-40171
X-258435Y-21121
X-234623Y36029
X-80953Y-18708
X-80953Y-42584
X-72697Y-30646
X-382260Y-2071
X-72697Y36029
X-208429Y-40171
X-110798Y-21121
X-110798Y36029
X-310823Y36029
X-129848Y36029
X-358448Y16979
X-210819Y-2069
X-229860Y-2071
X-215573Y36029
X-306060Y-2071
X-129848Y-2071
X-329904Y-31916
X-279866Y-40171
X-229828Y-31916
X-372735Y-21121
X-427535Y27774
X-415597Y36029
X-403660Y27774
X-329829Y36061
X-206048Y16979
X-377498Y16979
X-129848Y16979
X-339398Y16979
X-398929Y-21121
X-325110Y-2071
X-201285Y-21121
X-401310Y-2071
X-184616Y-40171
X-291773Y36029
X-348922Y36029
X-282248Y16979
X-248910Y-2071
X-160804Y-2071
X-165566Y-2071
X-196523Y36029
X-160804Y-21121
X-129848Y-40171
X-398929Y-40171
X-110798Y-2071
X-110798Y-40171
X-239385Y-21121
X-422741Y7454
X-414486Y19392
X-414486Y-4484
X-129848Y-21121
X-91748Y-40171
X-387023Y36029
X-244148Y16979
X-91748Y16979
X-287010Y-2071
X-253673Y36029
X-425154Y-10326
X-413216Y-2071
X-401278Y-10326
X-344160Y-2071
X-177473Y36029
X-220335Y-21121
X-334635Y-21121
X-91748Y-21121
X-163185Y16979
X-367972Y36029
X-110798Y16979
X-420360Y16979
X-420392Y-29376
X-408454Y-21121
X-396516Y-29376
X-272722Y36029
X-422741Y-40171
X-296535Y-21121
X-132261Y-31916
X-120323Y-40171
X-108384Y-31916
X-91748Y-2071
X-277485Y-21121
X-353685Y-21121
X-160804Y-40171
X-91748Y36029
X-263198Y16979
X-267960Y-2071
X-182267Y-29376
X-170329Y-21121
X-158391Y-29376
X-425123Y-21121
X-351304Y-40171
X-182235Y-21121
X-158423Y36029
X-80953Y19392
X-80953Y-4484
X-72697Y7454
X-363210Y-2071
X-315585Y-21121
X-301298Y16979
T2
G00X-148435Y48573
M15
G01X-148435Y49173
M16
G05
G00X-148435Y44123
M15
G01X-148435Y45223
M16
G05
G00X-139835Y48573
M15
G01X-139835Y49173
M16
G05
G00X-139835Y44123
M15
G01X-139835Y45223
M16
G05
T0
M30
